<svg xmlns="http://www.w3.org/2000/svg" xmlns:xlink="http://www.w3.org/1999/xlink" version="1.1" x="0px" y="0px" viewBox="0 0 163.6 40" style="enable-background:new 0 0 163.6 40;" xml:space="preserve">
<style type="text/css">
	.st0{display:none;}
	.st1{display:inline;}
	.st2{fill:#00A1B0;}
	.st3{fill:#EE3B25;}
	.st4{fill:#0B777D;}
	.st5{fill:#03A3AD;}
	.st6{fill:#3DC1CF;}
	.st7{fill:#ED9E23;}
	.st8{fill:#EE3D25;}
	.st9{fill:#59595C;}
	.st10{fill:#C6C7C8;}
	.st11{fill:#E5E6E6;}
</style>
<g id="Layer_2" class="st0">
	<g class="st1">
		<defs>
			<rect id="SVGID_1_" x="-3511.9" y="-887.6" width="817.3" height="379.5"/>
		</defs>
		<clipPath id="SVGID_2_">
			<use xlink:href="#SVGID_1_" style="overflow:visible;"/>
		</clipPath>
		<g style="clip-path:url(#SVGID_2_);">
			
				<image style="overflow:visible;" width="1080" height="720" xlink:href="E3233C5A497A1176.jpg" transform="matrix(1.4171 0 0 1.4171 -3891.3582 -1208.7028)">
			</image>
		</g>
	</g>
	
		<image style="display:inline;overflow:visible;" width="1080" height="720" xlink:href="E3233C5A497A117A.jpg" transform="matrix(0.4638 0 0 0.4638 -3517.1306 -1341.0447)">
	</image>
</g>
<g id="Layer_1">
	<g>
		<path class="st2" d="M36.1,21.9c-1.7,0.6-2.2,2-2.6,3.4c0,0.8-0.6,1.5-1.6,2c-0.5,0.2-1,0.3-1.5,0.3c-0.6,0-1.2-0.2-1.8-0.5    c-0.9-0.5-1.3-1.4-1.3-2.4c-0.5-1.2-1.2-2.4-2.4-2.8c-1.4-0.4-2.3-1.4-2.9-2.4c0,0.6,0,1.2,0,1.4c0,2.6,0,2.1,0,4    c0.1,1.8,0.7,3.2,1.9,4.5c1.7,1.8,4.1,2.8,6.6,2.8h0c0.9,0,1.8-0.1,2.7-0.4c3.3-1,5.7-3.8,5.7-6.9c0-0.9,0-1,0-2.6l0-0.7    c0-0.3,0-1,0-1.9C38.2,20.7,37.4,21.5,36.1,21.9z"/>
		<path class="st3" d="M25,21.1c1,0.3,1.8,1.1,2.3,2c0-1.2,0-2.5,0-4h0v-4.9c0-2.5-3.1-3-4.2-3c-0.4,0-1,0.1-1.1,1l0,0v6    C22.4,19.2,23.3,20.7,25,21.1z"/>
		<path class="st3" d="M38.8,12.2c-0.1-0.9-0.7-1-1.1-1c-1.1,0-4.2,0.6-4.2,3v4.9h0c0,1.2,0,0.7,0,1.2c0,1,0,2.2,0,3.2    c0.5-1.1,1.3-2.1,2.5-2.4c1.5-0.4,2.3-1.6,2.8-2.6L38.8,12.2L38.8,12.2z"/>
		<path class="st2" d="M125.1,12.2c0-0.9-0.2-1.3-1.3-1.3c-1.2,0-2,0-3.4,0.3c-3.8,0.7-7.1,3.5-7.6,6.7c-0.2,1-0.2,5.3-0.2,7.2    c0,0.6,0,1.1,0,1.4c0,0.8,0,1.6,0,2.4c0,0.7,0,1.4,0,2c0,0.4,0.1,0.7,0.3,0.9c0.2,0.2,0.6,0.3,1,0.3l0.1,0c0.5,0,1,0,1.4,0    c0.5,0,0.9,0,1.4,0l0.1,0c0.5,0,0.8-0.1,1-0.3c0.2-0.2,0.3-0.5,0.3-0.9c0-0.8,0-1.7,0-2.5c0-0.3,0-0.7,0-1c0-0.3,0-0.8,0-1.4    c0-1.6,0-5.7,0-6.5c0-1.3,0.4-2.1,1.2-2.7c0.8-0.7,2.1-1.2,4.1-1.1l0.2,0c1.1,0,1.5-0.3,1.5-1.4C125.1,13.7,125.1,13,125.1,12.2z"/>
		<path class="st2" d="M163.5,18.7c-0.1-1.8-0.7-3.3-1.9-4.6c-1.7-1.8-4.2-2.9-6.7-2.9c-0.9,0-1.9,0.1-2.8,0.4    c-3.4,1-5.8,3.9-5.8,7.1c0,0.9,0,5.3,0,7l0,2.3c0,0.9,0,1.9,0,2.8c0,1.2,0.3,1.4,1.6,1.4c0.3,0,0.6,0,0.9,0l1.2,0    c1.5,0,1.8-0.1,1.8-1.6c0-0.8,0-1.9,0-3c0-2.4,0-7.1,0-8.7c0-1.1,0.6-2,1.6-2.4c0.5-0.2,1-0.3,1.5-0.3c0.7,0,1.3,0.2,1.9,0.5    c0.9,0.5,1.3,1.3,1.3,2.5c0,2.5,0,9.4,0,11.9c0,0.4,0.1,0.7,0.3,0.9c0.2,0.2,0.5,0.3,0.9,0.3c0,0,0.1,0,0.1,0c0.3,0,0.5,0,0.9,0    c0.2,0,0.4,0,0.7,0c0.2,0,0.4,0,0.7,0c0.1,0,0.2,0,0.3,0c1.3,0,1.6-0.3,1.6-1.4c0-0.5,0-1.2,0-1.9    C163.6,26.1,163.6,20.7,163.5,18.7z"/>
		<path class="st2" d="M69.8,18.7c-0.1-1.8-0.7-3.3-1.9-4.6c-0.9-0.9-1.9-1.7-3.2-2.2l0,0l-0.2-0.1c-0.2-0.1-0.3-0.1-0.5-0.2    c-0.9-0.3-1.8-0.4-2.8-0.4l-0.1,0c-0.9,0-1.9,0.1-2.8,0.4c-1.1,0.3-2.2,0.9-3.1,1.6c-0.9-0.7-2-1.3-3.1-1.6    c-0.9-0.3-1.8-0.4-2.8-0.4l-0.1,0c-0.9,0-1.9,0.1-2.8,0.4c-0.2,0-0.3,0.1-0.5,0.2l-0.2,0.1l-0.1,0c-1.2,0.5-2.2,1.3-3.1,2.2    c-1.2,1.3-1.8,2.8-1.9,4.6c-0.1,2,0,7.4,0,10.1c0,0.7,0,1.4,0,1.9c0,1,0.3,1.4,1.3,1.4v0h2.7c0,0,0.1,0,0.1,0c0,0,0.1,0,0.1,0    c0.4,0,0.7-0.1,0.9-0.3c0.2-0.2,0.3-0.5,0.3-0.9c0-2.4,0-9.4,0-11.9c0-1.2,0.4-2,1.3-2.5c0.5-0.3,1.1-0.5,1.7-0.5c0,0,0.1,0,0.1,0    h0.2c0,0,0.1,0,0.1,0c0.6,0,1.1,0.2,1.7,0.5c0.9,0.5,1.3,1.3,1.3,2.5c0,2.5,0,9.5,0,11.9c0,0.4,0.1,0.7,0.3,0.9    c0.2,0.2,0.5,0.3,0.9,0.3c0,0,0.1,0,0.1,0c0,0,0.1,0,0.1,0h2.7c0,0,0.1,0,0.1,0c0,0,0.1,0,0.1,0c0.4,0,0.7-0.1,0.9-0.3    c0.2-0.2,0.3-0.5,0.3-0.9c0-2.5,0-9.4,0-11.9c0-1.2,0.4-2,1.3-2.5c0.5-0.3,1.1-0.5,1.7-0.5c0,0,0.1,0,0.1,0h0.2c0,0,0.1,0,0.1,0    c0.6,0,1.1,0.2,1.7,0.5c0.9,0.5,1.3,1.3,1.3,2.5c0,2.5,0,9.5,0,11.9c0,0.4,0.1,0.7,0.3,0.9c0.2,0.2,0.5,0.3,0.9,0.3    c0,0,0.1,0,0.1,0c0,0,0.1,0,0.1,0h2.7v0c1.1,0,1.4-0.4,1.4-1.4c0-0.5,0-1.2,0-1.9C69.8,26.1,69.8,20.7,69.8,18.7z"/>
		<path class="st2" d="M90.3,22.1c0-0.4,0-1.6-0.1-2.1c-0.1-1.7-0.6-3-1.1-3.9c-0.4-0.8-1-1.6-1.7-2.3c-1.6-1.6-3.7-2.4-6.2-2.4    c-1.8,0-3.5,0.5-5,1.6c-0.9-0.9-2.4-1.2-3.6-1.2l-0.3,0c-0.8,0-0.9,0.6-0.9,0.8l0,26.5l0,0c0.2,0.6,0.6,0.9,1.3,0.9h2.5l0,0    c0.5-0.1,1-0.4,1.2-1l0.1,0.1v-8.2c1.5,1,3.1,1.5,4.8,1.5c1.1,0,2.2-0.2,3.1-0.5l0,0.1l0.5-0.2c0.6-0.3,1.3-0.7,1.9-1.2l0.3-0.2    l0,0C89.8,28.1,90.2,23.8,90.3,22.1z M77.7,27.3L77.7,27.3l-0.2-0.1c0,0,0,0-0.1-0.1c0,0-0.1-0.1-0.1-0.1    c-0.1-0.1-0.3-0.3-0.4-0.4c0-0.1-0.1-0.1-0.1-0.2c0,0-0.1-0.1-0.1-0.1c0,0,0,0,0-0.1c-0.1-0.1-0.1-0.3-0.2-0.4    c-0.2-0.5-0.3-1.2-0.3-2v-4.4c0-1.7,1.1-3,2.1-3.5c0.6-0.3,1.4-0.5,2.2-0.5c0.8,0,1.5,0.2,2.1,0.5l0.2,0.1    c0.2,0.1,0.4,0.3,0.7,0.6l0,0l0,0c0.2,0.2,0.3,0.4,0.5,0.6l0.1,0.1c0.4,0.6,0.9,2.5,0.9,4.1c0,0.1,0,0.2,0,0.3c0,0.1,0,0.1,0,0.2    c0,0,0,0,0,0.1c0,0.1,0,0.2,0,0.3c-0.1,1.8-0.4,4.4-2,5.2c-1.9,0.9-2.8,0.7-4.3,0.3C78.4,27.7,78,27.5,77.7,27.3z"/>
		<path class="st2" d="M110.5,12.4c0-0.2-0.1-0.8-0.9-0.8l-0.3,0c-1.2,0-2.7,0.3-3.6,1.2c-1.5-1.1-3.2-1.6-5-1.6    c-2.5,0-4.6,0.8-6.2,2.4c-0.7,0.7-1.3,1.4-1.7,2.3c-0.4,0.8-1,2.2-1.1,3.9c0,0.5-0.1,1.7-0.1,2.2c0,1.7,0.5,6,3.1,8.2l0,0l0.3,0.2    c0.6,0.5,1.3,0.9,1.9,1.2l0.5,0.2l0-0.1c1,0.3,2,0.5,3.1,0.5c1.8,0,3.4-0.5,4.8-1.5v0.1c0.1,0.8,0.5,1.3,1.2,1.3h2.6l0,0    c0.6-0.1,1.2-0.5,1.2-1.4L110.5,12.4z M105.9,23.9c0,0.1,0,0.1,0,0.1c0,0.2-0.1,0.4-0.1,0.5l0,0c-0.2,1.2-0.7,2-1.4,2.6l0,0    l-0.2,0.1c-0.3,0.2-0.7,0.4-1,0.5c-0.7,0.3-1.5,0.4-2.2,0.4c-0.3,0-0.5,0-0.7-0.1c-0.4-0.1-0.9-0.3-1.4-0.5    c-0.5-0.3-0.8-0.6-1.1-1l0,0c-0.2-0.3-0.3-0.6-0.5-0.9c-0.5-1.3-0.5-3-0.5-4.1l0,0c0.1-1.8,0.5-3.5,1-4.3c0.1-0.2,0.3-0.4,0.5-0.6    l0,0l0,0c0.3-0.3,0.5-0.5,0.7-0.6l0.2-0.1c0.6-0.3,1.3-0.5,2.1-0.5c0.9,0,1.7,0.2,2.3,0.6c1,0.4,1.7,1.3,2.1,2.5    c0.1,0.2,0.1,0.4,0.2,0.7c0,0.1,0,0.3,0,0.4V23.9z"/>
		<path class="st2" d="M144.3,12.4c0-0.2-0.1-0.8-0.9-0.8l-0.3,0c-1.2,0-2.7,0.3-3.6,1.2c-1.5-1.1-3.2-1.6-5-1.6    c-2.5,0-4.6,0.8-6.2,2.4c-0.7,0.7-1.3,1.4-1.7,2.3c-0.4,0.8-1,2.2-1.1,3.9c0,0.5-0.1,1.7-0.1,2.2c0,1.7,0.5,6,3.1,8.2l0,0l0.3,0.2    c0.6,0.5,1.3,0.9,1.9,1.2l0.5,0.2l0-0.1c1,0.3,2,0.5,3.1,0.5c1.8,0,3.4-0.5,4.8-1.5v0.1c0.1,0.8,0.5,1.3,1.2,1.3h2.6l0,0    c0.6-0.1,1.2-0.5,1.2-1.4L144.3,12.4z M139.8,23.9c0,0.1,0,0.1,0,0.1c0,0.2-0.1,0.4-0.1,0.5l0,0c-0.2,1.2-0.7,2-1.4,2.6l0,0    l-0.2,0.1c-0.3,0.2-0.7,0.4-1,0.5c-0.7,0.3-1.5,0.4-2.2,0.4c-0.3,0-0.5,0-0.7-0.1c-0.4-0.1-0.9-0.3-1.4-0.5    c-0.5-0.3-0.8-0.6-1.1-1l0,0c-0.2-0.3-0.3-0.6-0.5-0.9c-0.5-1.3-0.5-3-0.5-4.1l0,0c0.1-1.8,0.5-3.5,1-4.3c0.1-0.2,0.3-0.4,0.5-0.6    l0,0l0,0c0.3-0.3,0.5-0.5,0.7-0.6l0.2-0.1c0.6-0.3,1.3-0.5,2.1-0.5c0.9,0,1.7,0.2,2.3,0.6c1,0.4,1.7,1.3,2.1,2.5    c0.1,0.2,0.1,0.4,0.2,0.7c0,0.1,0,0.3,0,0.4V23.9z"/>
		<path class="st2" d="M19.6,30.4L19.6,30.4c-0.3-0.3-0.6-0.7-0.9-1c-0.6-0.6-1.1-1.2-1.7-1.8c-0.7-0.8-1.4-1.5-2.1-2.3l-0.1-0.1    c-0.9-1-1.9-2.1-3-3.2c-0.4-0.4-0.6-0.8-0.6-1.2c0-0.4,0.2-0.8,0.7-1.2c2.2-2.1,4.4-4.4,6.5-6.4l0,0c0.4-0.4,0.6-0.8,0.5-1.1    c-0.1-0.4-0.4-0.5-2.1-0.5c-0.5,0-2,0-2,0c-1.1,0-1.7,0.2-2.2,0.7c-0.5,0.5-4.8,4.5-6.7,6.2l-0.6,0.6l0-1.3c0-0.6,0-1.1,0-1.8    c0-0.8,0-1.7,0-2.6h0v-10C5.2,0.6,1.8,0,0.7,0C0.2,0,0.1,0.1,0,0.6v14.5l0,0.5c0,4.5,0,9,0,13.4l0,2c0,0,0,0,0,0    c0,0.4,0.2,0.7,0.6,0.7h3.8c0.4,0,0.7-0.2,0.8-0.8c0-1.1,0-2.2,0-3.2c0,0,0-1.3,0-1.9v-3.5l1.5,1.6c0.2,0.2,0.4,0.5,0.7,0.7    l1.5,1.6c1.5,1.6,3.1,3.3,4.8,5c0.2,0.2,0.7,0.4,1,0.4c0.9,0,1.8,0,2.9,0c0.7,0,1.3,0,1.9,0l0,0C20.3,31.8,20.2,31,19.6,30.4z"/>
	</g>
	<g>
		<path class="st4" d="M34.6,377.2c15.5,0,28.1,12.6,28.1,28.1c0,15.5-12.6,28.1-28.1,28.1c-15.5,0-28.1-12.6-28.1-28.1    C6.5,389.8,19.1,377.2,34.6,377.2"/>
		<path class="st5" d="M146,377.2c15.5,0,28.1,12.6,28.1,28.1c0,15.5-12.6,28.1-28.1,28.1c-15.5,0-28.1-12.6-28.1-28.1    C117.9,389.8,130.5,377.2,146,377.2"/>
		<path class="st6" d="M257.5,377.2c15.5,0,28.1,12.6,28.1,28.1c0,15.5-12.6,28.1-28.1,28.1c-15.5,0-28.1-12.6-28.1-28.1    C229.3,389.8,241.9,377.2,257.5,377.2"/>
		<path class="st7" d="M368.9,377.2c15.5,0,28.1,12.6,28.1,28.1c0,15.5-12.6,28.1-28.1,28.1c-15.5,0-28.1-12.6-28.1-28.1    C340.8,389.8,353.3,377.2,368.9,377.2"/>
		<path class="st8" d="M480.3,377.2c15.5,0,28.1,12.6,28.1,28.1c0,15.5-12.6,28.1-28.1,28.1c-15.5,0-28.1-12.6-28.1-28.1    C452.2,389.8,464.8,377.2,480.3,377.2"/>
	</g>
	<path class="st9" d="M34.6,482.2c15.5,0,28.1,12.6,28.1,28.1c0,15.5-12.6,28.1-28.1,28.1c-15.5,0-28.1-12.6-28.1-28.1   C6.5,494.8,19.1,482.2,34.6,482.2"/>
	<path class="st10" d="M146,482.2c15.5,0,28.1,12.6,28.1,28.1c0,15.5-12.6,28.1-28.1,28.1c-15.5,0-28.1-12.6-28.1-28.1   C117.9,494.8,130.5,482.2,146,482.2"/>
	<path class="st11" d="M257.5,482.2c15.5,0,28.1,12.6,28.1,28.1c0,15.5-12.6,28.1-28.1,28.1c-15.5,0-28.1-12.6-28.1-28.1   C229.3,494.8,241.9,482.2,257.5,482.2"/>
	<g>
		<path class="st2" d="M1371.4,89.6c-2.7,0.9-3.6,3.2-4.3,5.4c0,1.3-0.9,2.4-2.6,3.2c-0.8,0.4-1.6,0.5-2.4,0.5c-1,0-2-0.3-2.9-0.9    c-1.4-0.8-2.1-2.2-2.1-3.8c-0.7-2-1.9-3.9-3.9-4.5c-2.3-0.7-3.8-2.2-4.7-3.8c0,1,0,1.9,0,2.2c0,4.2-0.1,3.4,0,6.5    c0.1,2.9,1.1,5.2,3,7.3c2.7,2.9,6.6,4.5,10.7,4.5h0c1.5,0,3-0.2,4.4-0.6c5.4-1.6,9.2-6.2,9.2-11.1c0-1.5,0-1.6,0-4.2l0-1.1    c0-0.5,0-1.6,0-3C1374.8,87.7,1373.4,88.9,1371.4,89.6z"/>
		<path class="st3" d="M1353.3,88.4c1.7,0.5,2.9,1.8,3.7,3.3c0-1.9,0-4.1,0-6.5h0v-7.9c0-4-5-4.9-6.8-4.9c-0.7,0-1.7,0.2-1.8,1.6    l0,0v9.6C1349.2,85.3,1350.7,87.7,1353.3,88.4z"/>
		<path class="st3" d="M1375.7,73.9c-0.2-1.5-1.1-1.6-1.8-1.6c-1.8,0-6.8,0.9-6.8,4.9v7.9h0c0,1.9,0,1.1,0,1.9c0,1.7,0,3.5,0,5.2    c0.8-1.8,2.1-3.4,4-3.9c2.4-0.7,3.8-2.5,4.6-4.2L1375.7,73.9L1375.7,73.9z"/>
	</g>
	<g>
		<path class="st2" d="M1544.6,89.9c-4.8,1.6-6.3,5.6-7.5,9.6c0,2.3-1.6,4.3-4.6,5.6c-1.4,0.6-2.9,0.9-4.3,0.9    c-1.8,0-3.6-0.5-5.2-1.5c-2.4-1.5-3.7-3.9-3.7-6.7c-1.3-3.5-3.4-6.9-6.9-7.9c-4-1.1-6.6-4-8.3-6.7c0,1.8,0,3.3,0,3.9    c0,7.4-0.1,5.9,0.1,11.4c0.2,5.1,1.9,9.3,5.3,12.8c4.8,5.1,11.6,8,18.8,8h0c2.6,0,5.2-0.4,7.8-1.1c9.5-2.8,16.2-10.9,16.2-19.6    c0-2.7,0-2.8,0-7.4l0-1.9c0-0.9,0-2.9,0-5.3C1550.6,86.5,1548.1,88.7,1544.6,89.9z"/>
		<path class="st3" d="M1512.8,87.8c3,0.9,5.1,3.1,6.5,5.8c0-3.4,0-7.3,0-11.5h0V68c0-7.1-8.8-8.7-11.9-8.7c-1.3,0-3,0.3-3.2,2.9    l0,0v17C1505.4,82.3,1508,86.4,1512.8,87.8z"/>
		<path class="st3" d="M1552.3,62.2c-0.3-2.6-2-2.9-3.2-2.9c-3.1,0-11.9,1.6-11.9,8.7v14h-0.1c0,3.3,0,2,0,3.4c0,3,0,6.2,0,9.2    c1.5-3.1,3.7-5.9,7.1-6.9c4.2-1.2,6.7-4.5,8.1-7.4L1552.3,62.2L1552.3,62.2z"/>
	</g>
	<g>
		<path class="st2" d="M1709,78.1c-6.5,2.2-8.4,7.5-10,12.8c0,3.1-2.1,5.7-6.1,7.4c-1.9,0.8-3.8,1.3-5.7,1.3c-2.4,0-4.7-0.7-6.9-2    c-3.3-2-4.9-5.2-4.9-9c-1.7-4.6-4.6-9.2-9.3-10.5c-5.4-1.5-8.8-5.3-11-8.9c0,2.4,0,4.4,0,5.2c-0.1,9.8-0.1,7.9,0.1,15.3    c0.2,6.7,2.5,12.3,7.1,17.1c6.4,6.7,15.5,10.6,25.1,10.6h0c3.5,0,7-0.5,10.4-1.5c12.7-3.8,21.6-14.5,21.6-26.2c0-3.6,0-3.7,0-9.8    l0-2.5c0-1.2,0-3.9,0-7C1717.1,73.5,1713.8,76.4,1709,78.1z"/>
		<path class="st3" d="M1666.7,75.2c4,1.1,6.8,4.2,8.7,7.7c0-4.5,0-9.7,0-15.3h0V48.9c0-9.5-11.8-11.6-15.9-11.6    c-1.7,0-3.9,0.4-4.3,3.8l0,0v22.7C1656.9,67.9,1660.3,73.4,1666.7,75.2z"/>
		<path class="st3" d="M1719.3,41.1c-0.4-3.4-2.6-3.8-4.3-3.8c-4.1,0-15.9,2.1-15.9,11.6v18.7h-0.1c0,4.4,0,2.7,0,4.5    c0,4,0,8.2,0,12.3c2-4.1,5-7.9,9.5-9.2c5.5-1.6,8.9-6,10.8-9.8L1719.3,41.1L1719.3,41.1z"/>
	</g>
	<g>
		<path class="st2" d="M1935,78.4c-9.7,3.3-12.6,11.2-15,19.2c0,4.6-3.2,8.5-9.1,11.1c-2.8,1.3-5.7,1.9-8.6,1.9c-3.6,0-7.1-1-10.4-3    c-4.9-3-7.3-7.9-7.3-13.4c-2.6-7-6.9-13.8-13.9-15.8c-8-2.3-13.2-7.9-16.5-13.4c0,3.6,0,6.6,0,7.8c-0.1,14.8-0.2,11.9,0.2,22.9    c0.3,10.1,3.8,18.5,10.6,25.7c9.6,10.1,23.3,15.9,37.6,15.9h0c5.2,0,10.5-0.8,15.6-2.3c19.1-5.6,32.4-21.8,32.4-39.3    c0-5.3,0-5.6,0-14.7l0-3.7c0-1.7,0-5.8,0-10.6C1947.1,71.7,1942.1,76,1935,78.4z"/>
		<path class="st3" d="M1871.4,74.2c6,1.7,10.1,6.2,13.1,11.5c0-6.8,0-14.5,0-23h-0.1v-28c0-14.2-17.7-17.4-23.9-17.4    c-2.5,0-5.9,0.6-6.5,5.7l0,0.1v34C1856.7,63.3,1861.9,71.5,1871.4,74.2z"/>
		<path class="st3" d="M1950.4,23c-0.6-5.1-4-5.7-6.5-5.7c-6.2,0-23.9,3.2-23.9,17.4v28h-0.1c0,6.6,0,4.1,0,6.8c0,6,0,12.4,0,18.5    c3-6.2,7.4-11.8,14.2-13.8c8.3-2.4,13.3-9,16.2-14.7L1950.4,23L1950.4,23z"/>
	</g>
	<g>
		<path class="st2" d="M2255.4,66.6c-11.3,3.8-14.7,13.1-17.5,22.4c0,5.4-3.7,9.9-10.7,13c-3.3,1.5-6.7,2.2-10,2.2    c-4.2,0-8.3-1.2-12.1-3.5c-5.7-3.4-8.6-9.2-8.6-15.7c-3-8.1-8-16.1-16.2-18.5c-9.4-2.7-15.4-9.2-19.3-15.6c0,4.2,0,7.7,0,9.1    c-0.1,17.2-0.2,13.8,0.2,26.7c0.4,11.8,4.4,21.6,12.4,30c11.2,11.8,27.1,18.6,43.9,18.6h0c6.1,0,12.2-0.9,18.1-2.6    c22.3-6.6,37.8-25.4,37.9-45.8c0-6.2,0-6.5,0-17.2l0-4.4c0-2,0-6.7,0-12.3C2269.6,58.7,2263.7,63.8,2255.4,66.6z"/>
		<path class="st3" d="M2181.3,61.7c7,2,11.8,7.3,15.3,13.4c0-7.9,0-16.9,0-26.8h-0.1V15.6c0-16.6-20.6-20.3-27.8-20.3    c-2.9,0-6.9,0.7-7.6,6.7l0,0.1v39.6C2164.1,48.9,2170.2,58.5,2181.3,61.7z"/>
		<path class="st3" d="M2273.4,2c-0.7-6-4.6-6.7-7.6-6.7c-7.2,0-27.8,3.7-27.8,20.3v32.7h-0.1c0,7.7,0,4.7,0,7.9    c0,6.9,0,14.4,0,21.5c3.5-7.3,8.7-13.8,16.6-16.1c9.7-2.8,15.6-10.5,18.9-17.2L2273.4,2L2273.4,2z"/>
	</g>
	<g>
		<path class="st2" d="M2545.6,54.9c-13.7,4.7-17.9,15.9-21.3,27.2c0,6.5-4.5,12.1-12.9,15.8c-4,1.8-8.1,2.7-12.1,2.7    c-5.1,0-10.1-1.4-14.7-4.3c-6.9-4.2-10.4-11.1-10.4-19c-3.7-9.9-9.7-19.6-19.7-22.4c-11.4-3.3-18.8-11.2-23.4-19c0,5.1,0,9.3,0,11    c-0.1,20.9-0.3,16.8,0.2,32.4c0.5,14.3,5.4,26.2,15,36.4c13.6,14.3,33,22.6,53.3,22.6h0c7.4,0,14.8-1.1,22-3.2    c27-8,45.9-30.9,46-55.6c0-7.6,0-7.9,0-20.8l0-5.3c0-2.5,0-8.2,0-15C2562.8,45.3,2555.7,51.5,2545.6,54.9z"/>
		<path class="st3" d="M2455.6,48.9c8.5,2.4,14.4,8.8,18.5,16.3c0-9.6,0-20.5,0-32.5h-0.1V-7.1c0-20.1-25-24.6-33.8-24.6    c-3.6,0-8.4,0.8-9.2,8.1l0,0.1v48.1C2434.8,33.4,2442.1,45.1,2455.6,48.9z"/>
		<path class="st3" d="M2567.5-23.6c-0.8-7.3-5.6-8.1-9.2-8.1c-8.8,0-33.8,4.5-33.8,24.6v39.7h-0.2c0,9.3,0,5.7,0,9.6    c0,8.4,0,17.5,0,26.2c4.2-8.8,10.5-16.8,20.2-19.5c11.8-3.4,18.9-12.7,23-20.9L2567.5-23.6L2567.5-23.6z"/>
	</g>
</g>
<g id="Layer_3">
</g>
</svg>